<svg id="aaec74b3-bcbe-44df-9add-67f9b3b3f407" data-name="Layer 1" xmlns="http://www.w3.org/2000/svg" width="54.392mm" height="54.392mm" viewBox="0 0 154.182 154.182">
  <defs>
    <style>
      .a05a9c32-bd02-44b2-9de9-aa538ab368e4 {
        fill: #231f20;
      }

      .a3345923-661e-49e4-ab5d-12fe49ac98bd, .e2c9bd30-3a48-4a84-b052-056ba6d16a5c, .f05f5447-4f95-4c4a-a42e-15b72053e1a4 {
        fill: #fff;
      }

      .f05f5447-4f95-4c4a-a42e-15b72053e1a4 {
        fill-rule: evenodd;
      }

      .e2c9bd30-3a48-4a84-b052-056ba6d16a5c {
        stroke: #1b1b1b;
        stroke-linecap: round;
        stroke-linejoin: round;
        stroke-width: 0.2px;
      }

      .a3345923-661e-49e4-ab5d-12fe49ac98bd {
        stroke: #010101;
        stroke-width: 0.8px;
      }
    </style>
  </defs>
  <path id="face808a-dba7-4779-b020-6dabfd91a52c" data-name="Shape 7" class="a05a9c32-bd02-44b2-9de9-aa538ab368e4" d="M154.182,77.091c-3.795-7.814-10.132-13.656-17.664-15.925,5.387-5.731,7.956-13.957,7.336-22.621-7.193-4.868-15.6-6.759-23.257-4.96,1.8-7.656-.092-16.064-4.961-23.257-8.663-.62-16.889,1.949-22.62,7.336C90.747,10.132,84.905,3.8,77.091,0,69.277,3.8,63.435,10.132,61.166,17.664c-5.731-5.387-13.957-7.956-22.621-7.336-4.868,7.193-6.759,15.6-4.96,23.257-7.656-1.8-16.064.092-23.257,4.96-.62,8.664,1.949,16.89,7.336,22.621C10.132,63.435,3.8,69.277,0,77.091c3.8,7.814,10.132,13.656,17.664,15.925-5.387,5.731-7.956,13.957-7.336,22.62,7.193,4.869,15.6,6.76,23.257,4.961-1.8,7.656.092,16.064,4.96,23.257,8.664.62,16.89-1.949,22.621-7.336,2.269,7.532,8.111,13.869,15.925,17.664,7.814-3.795,13.656-10.132,15.925-17.664,5.731,5.387,13.957,7.956,22.62,7.336,4.869-7.193,6.76-15.6,4.961-23.257,7.656,1.8,16.064-.092,23.257-4.961.62-8.663-1.949-16.889-7.336-22.62C144.05,90.747,150.387,84.905,154.182,77.091Z"/>
  <g id="fe061464-490b-47e7-ab09-e97e3e50f63d" data-name="Line Art">
    <path id="ad0de373-a633-4c82-bbed-42f0f892bdb2" data-name="path3714" class="f05f5447-4f95-4c4a-a42e-15b72053e1a4" d="M45.258,71.944c.01.006-.029.084-.121.226a5.89,5.89,0,0,1-.46.6,7.663,7.663,0,0,1-.9.883,8.675,8.675,0,0,1-1.456.987,9.18,9.18,0,0,1-1.765.73,9.06,9.06,0,0,1-2.237.372,9.7,9.7,0,0,1-2.072-.149,11.026,11.026,0,0,1-2.181-.632,12.335,12.335,0,0,1-1.866-.95,12.934,12.934,0,0,1-1.772-1.321h0a16.473,16.473,0,0,1-2.616-3,25.848,25.848,0,0,1-2.1-3.743,32.829,32.829,0,0,1-2.047-5.6,24.8,24.8,0,0,1-.841-6.378,20.1,20.1,0,0,1,.924-5.982,17.743,17.743,0,0,1,3.02-5.713,17.4,17.4,0,0,1,3.112-3.015A18.186,18.186,0,0,1,33.815,37a18.728,18.728,0,0,1,4.319-1.215,18.955,18.955,0,0,1,4.609-.154c1.062.1,2.1.278,3.125.4a11.818,11.818,0,0,0,2.979.049,9.273,9.273,0,0,0,2.312-.648c.757-.309,1.505-.691,2.254-1.081a18.906,18.906,0,0,1,4.776-2.006,18.617,18.617,0,0,1,5.634-.05l.332.03a15.984,15.984,0,0,0,4.992-.092,14.187,14.187,0,0,0,3.909-1.708,32.326,32.326,0,0,1,3.935-2.114,13.779,13.779,0,0,1,3.715-.925,15.113,15.113,0,0,1,3.786.075,16.956,16.956,0,0,1,6.95,2.719,18.176,18.176,0,0,1,6.112,6.953,18.493,18.493,0,0,1,1.524,4.369A19.237,19.237,0,0,1,99.5,46.02,22.7,22.7,0,0,1,98.528,52a31.1,31.1,0,0,1-2.154,5.306,49.559,49.559,0,0,1-3.221,5.351c-1.119,1.642-2.249,3.156-3.32,4.567-.58.767-1.159,1.514-1.773,2.189a12.543,12.543,0,0,1-1.965,1.78,8.241,8.241,0,0,1-2.547,1.243h0a6.568,6.568,0,0,1-1.481.236,5.851,5.851,0,0,1-1.4-.106,5.241,5.241,0,0,1-1.95-.839,4.791,4.791,0,0,1-1.235-1.247,4.369,4.369,0,0,1-.633-1.466,4.213,4.213,0,0,1-.1-1.14,3.494,3.494,0,0,1,.1-.689c.039-.152.071-.226.082-.224a.785.785,0,0,1-.014.234,5.087,5.087,0,0,0-.031.68,4.5,4.5,0,0,0,.163,1.1,4.441,4.441,0,0,0,.246.669,4.378,4.378,0,0,0,.413.706,4.628,4.628,0,0,0,1.2,1.141,4.944,4.944,0,0,0,1.837.74,5.318,5.318,0,0,0,1.3.072,6.256,6.256,0,0,0,1.377-.246h0A7.781,7.781,0,0,0,85.8,70.842,11.763,11.763,0,0,0,87.658,69.1c.585-.664,1.142-1.406,1.713-2.177,1.048-1.422,2.154-2.941,3.246-4.58a49.364,49.364,0,0,0,3.126-5.314,30.979,30.979,0,0,0,2.065-5.213,21.871,21.871,0,0,0,.9-5.81,18.683,18.683,0,0,0-.432-4.253,17.768,17.768,0,0,0-1.486-4.189A17.412,17.412,0,0,0,94.35,33.95a17.2,17.2,0,0,0-3.421-3,16.052,16.052,0,0,0-6.575-2.555,14.228,14.228,0,0,0-3.543-.063,12.631,12.631,0,0,0-3.451.864,31.609,31.609,0,0,0-3.816,2.062,15.038,15.038,0,0,1-4.177,1.815,16.958,16.958,0,0,1-5.3.117l-.334-.032a17.815,17.815,0,0,0-5.333.03A18.141,18.141,0,0,0,53.865,35.1a24.462,24.462,0,0,1-2.341,1.118,10.884,10.884,0,0,1-2.546.7,12.719,12.719,0,0,1-3.226-.052c-1.063-.129-2.088-.312-3.1-.4a18.038,18.038,0,0,0-8.486,1.277,17.339,17.339,0,0,0-3.75,2.132,16.613,16.613,0,0,0-2.981,2.861A16.9,16.9,0,0,0,24.515,48.2a19.72,19.72,0,0,0-.933,5.776,24.132,24.132,0,0,0,.767,6.222A32.853,32.853,0,0,0,26.3,65.713,26.288,26.288,0,0,0,28.31,69.4a15.762,15.762,0,0,0,2.49,2.938h0a12.5,12.5,0,0,0,1.682,1.293,11.8,11.8,0,0,0,1.775.938,10.628,10.628,0,0,0,2.076.641,9.275,9.275,0,0,0,1.975.18,8.8,8.8,0,0,0,2.153-.309,9.18,9.18,0,0,0,1.727-.659,9.023,9.023,0,0,0,1.454-.911,8.814,8.814,0,0,0,.928-.821c.233-.237.4-.429.508-.557s.17-.194.18-.188Z"/>
    <path id="a4883fce-644c-4db4-8024-81999f9fd36f" data-name="path4848" class="e2c9bd30-3a48-4a84-b052-056ba6d16a5c" d="M73.279,52.808c0,.814-.981,1.475-2.193,1.475s-2.2-.658-2.2-1.472v0c0-.814.981-1.474,2.193-1.475s2.2.659,2.2,1.473Z"/>
    <path id="aad5892f-62b0-450a-9ee2-74f8bf5bb51d" data-name="path4770" class="f05f5447-4f95-4c4a-a42e-15b72053e1a4" d="M96.668,36.617a1.055,1.055,0,0,1,.391.021c.254.033.629.092,1.115.189s1.084.229,1.78.412,1.49.417,2.366.719,1.834.671,2.852,1.125a35.036,35.036,0,0,1,3.213,1.635,34.511,34.511,0,0,1,3.414,2.241,33.069,33.069,0,0,1,3.421,2.927,32.255,32.255,0,0,1,4.213,5.1,32.9,32.9,0,0,1,5,12.421,32.042,32.042,0,0,1,.5,6.559q-.009.32-.024.638a43.366,43.366,0,0,1-1.079,7.425c-.569,2.53-1.269,4.949-1.942,7.27-.366,1.26-.725,2.491-1.06,3.7s-.646,2.38-.92,3.529c-.308,1.293-.57,2.551-.773,3.769s-.35,2.395-.434,3.526h0a34.568,34.568,0,0,0,.107,6.328,36.382,36.382,0,0,0,.839,4.753c.317,1.294.629,2.289.843,2.965.106.337.189.595.24.771s.071.267.055.273-.067-.076-.15-.241-.2-.413-.335-.743a27.8,27.8,0,0,1-1.027-2.938,32.814,32.814,0,0,1-1.012-4.782,33.516,33.516,0,0,1-.251-6.426h0c.066-1.151.195-2.35.383-3.588s.436-2.515.732-3.824c.264-1.163.564-2.351.89-3.564s.675-2.45,1.031-3.712c.656-2.323,1.339-4.732,1.892-7.233a43.4,43.4,0,0,0,1.047-7.292c.01-.207.017-.414.023-.622a31.628,31.628,0,0,0-.474-6.4,32.644,32.644,0,0,0-4.81-12.154,32.069,32.069,0,0,0-4.058-5.024,33.189,33.189,0,0,0-3.3-2.911,35.106,35.106,0,0,0-3.306-2.256c-1.08-.651-2.128-1.2-3.118-1.677s-1.923-.864-2.776-1.189a40.758,40.758,0,0,0-4.042-1.3c-.474-.129-.84-.222-1.085-.29s-.37-.108-.366-.126Z"/>
    <path id="f414345b-c491-482c-b628-043c2260256c" data-name="path4776" class="f05f5447-4f95-4c4a-a42e-15b72053e1a4" d="M28.2,42.957c-.012-.013.071-.107.257-.266a6.265,6.265,0,0,1,.893-.629,8.052,8.052,0,0,1,1.642-.732,8.479,8.479,0,0,1,2.447-.4,8.676,8.676,0,0,1,4.077.958,8.069,8.069,0,0,1,1.35.872,8.422,8.422,0,0,1,1.265,1.261,9.76,9.76,0,0,1,1.031,1.553A13.749,13.749,0,0,1,42.4,48.934a32.827,32.827,0,0,1,.563,3.344c.147,1.152.277,2.335.495,3.527h0c.2,1.081.472,2.179.778,3.3s.645,2.273.953,3.46c.52,2,.944,4.081,1.388,6.205s.911,4.292,1.561,6.455c.5,1.659,1.1,3.314,1.777,4.975s1.411,3.312,2.142,4.925,1.462,3.2,2.147,4.775c.9,2.067,1.729,4.116,2.406,6.138a40.869,40.869,0,0,1,1.543,5.973,29.364,29.364,0,0,1,.4,3.457,25.6,25.6,0,0,1-.032,3.3,21.284,21.284,0,0,1-1.258,5.848h0A19.208,19.208,0,0,1,55.9,117.49a20.109,20.109,0,0,1-1.6,2.365,20.734,20.734,0,0,1-3.242,3.288c-.5.4-.957.735-1.365,1.012s-.766.5-1.059.664-.523.288-.68.363-.243.106-.251.094.061-.068.2-.167.352-.241.626-.431a24.209,24.209,0,0,0,2.289-1.779c.47-.414.975-.892,1.493-1.442a21.252,21.252,0,0,0,1.572-1.876,20.174,20.174,0,0,0,1.506-2.341,19.011,19.011,0,0,0,1.266-2.817h0a20.875,20.875,0,0,0,1.129-5.7,25.544,25.544,0,0,0-.013-3.212,29.885,29.885,0,0,0-.42-3.374,40.458,40.458,0,0,0-1.564-5.854c-.682-1.989-1.51-4.012-2.413-6.063-.689-1.561-1.423-3.144-2.158-4.76S49.736,82.2,49.05,80.506s-1.295-3.36-1.8-5.05c-.655-2.206-1.12-4.4-1.556-6.526s-.844-4.2-1.343-6.178c-.3-1.173-.625-2.323-.923-3.458s-.566-2.257-.758-3.368h0c-.21-1.228-.327-2.423-.458-3.57a32.875,32.875,0,0,0-.5-3.286,13.318,13.318,0,0,0-1.125-3.234,9.454,9.454,0,0,0-.941-1.48,7.78,7.78,0,0,0-1.154-1.2,7.51,7.51,0,0,0-1.237-.839,8.114,8.114,0,0,0-1.3-.568,8.329,8.329,0,0,0-2.511-.435,8.416,8.416,0,0,0-2.35.3,8.673,8.673,0,0,0-1.629.624,9.674,9.674,0,0,0-.934.535c-.206.13-.313.2-.326.185Z"/>
    <path id="fbfb289c-0ae6-49f0-ad05-207b8d62f3ff" data-name="path4788" class="f05f5447-4f95-4c4a-a42e-15b72053e1a4" d="M91.307,73.077c.028,0,.083.12.159.366s.172.612.277,1.09a30.941,30.941,0,0,1,.6,4.127,36.823,36.823,0,0,1-.04,6.283A37.956,37.956,0,0,1,90.77,92.67h0c-.42,1.357-.926,2.726-1.46,4.114-.4,1.052-.81,2.081-1.189,3.092-.471,1.262-.9,2.5-1.247,3.7a25.1,25.1,0,0,0-.761,3.512,20.089,20.089,0,0,0-.185,2.747,20.711,20.711,0,0,0,.152,2.5,21.862,21.862,0,0,0,.879,4.015,26.925,26.925,0,0,0,.954,2.518c.124.288.221.51.281.662s.082.236.062.245-.082-.054-.18-.189-.235-.34-.4-.615a16.918,16.918,0,0,1-1.186-2.479,19.99,19.99,0,0,1-1.2-9.49,24.825,24.825,0,0,1,.725-3.628c.338-1.238.765-2.5,1.236-3.775.376-1.022.78-2.056,1.184-3.1.532-1.382,1.037-2.733,1.457-4.06h0a40.284,40.284,0,0,0,1.61-7.561,41.833,41.833,0,0,0,.24-6.184c-.061-1.748-.213-3.147-.322-4.11-.055-.482-.1-.854-.122-1.108s-.022-.389,0-.394Z"/>
    <path id="e5aaf599-c75f-441a-b986-bbd3c03e2896" data-name="path4794" class="f05f5447-4f95-4c4a-a42e-15b72053e1a4" d="M101.541,88.929c.04-.033.288.152.69.54a17.784,17.784,0,0,1,1.581,1.777,22.764,22.764,0,0,1,1.977,2.983,23.266,23.266,0,0,1,1.786,4.093h0a25.456,25.456,0,0,1,.863,3.529,31.46,31.46,0,0,1,.431,4.74,40.78,40.78,0,0,1-.138,4.1,39.42,39.42,0,0,1-.546,4.162c-.095.493-.184.877-.258,1.135s-.131.394-.169.389-.051-.149-.047-.416.027-.657.059-1.154c.065-.995.168-2.42.225-4.152.039-1.211.056-2.575,0-4.038a35.829,35.829,0,0,0-.466-4.627,27.148,27.148,0,0,0-.812-3.428h0a25.72,25.72,0,0,0-1.62-4.011,28.679,28.679,0,0,0-1.757-3c-.546-.819-1.022-1.453-1.345-1.893s-.492-.688-.451-.721Z"/>
    <path id="b6f5b1af-3b38-4919-a81c-0e883c3ef7d8" data-name="path4800" class="f05f5447-4f95-4c4a-a42e-15b72053e1a4" d="M69.623,88.023c.06-.021.3.4.645,1.19a35.208,35.208,0,0,1,1.276,3.415,45.735,45.735,0,0,1,1.331,5.224,47.776,47.776,0,0,1,.8,6.535c.061,1.143.078,2.262.058,3.343h0a46.8,46.8,0,0,1-.407,5.367c-.218,1.62-.5,3.051-.78,4.232s-.559,2.116-.776,2.75-.37.972-.424.959,0-.375.114-1.028.307-1.6.506-2.782.41-2.607.572-4.212.274-3.391.288-5.3h0c.007-1.064-.016-2.166-.075-3.291a56.551,56.551,0,0,0-.715-6.445c-.334-1.97-.739-3.729-1.122-5.2s-.742-2.648-.985-3.466a4.122,4.122,0,0,1-.3-1.3Z"/>
    <path id="aa4a177c-4a9c-49c1-9a0a-82cc304df98b" data-name="path4806" class="f05f5447-4f95-4c4a-a42e-15b72053e1a4" d="M115.429,75.341c.053.032-.119.39-.5,1a25.143,25.143,0,0,1-1.812,2.467,33.807,33.807,0,0,1-3.164,3.33,36.561,36.561,0,0,1-4.485,3.519l-.187.123A37.851,37.851,0,0,1,100.16,88.6a36.839,36.839,0,0,1-4.5,1.7,28.452,28.452,0,0,1-3.157.783c-.378.069-.675.111-.878.129s-.314.012-.322-.017.089-.079.277-.151.468-.166.829-.284c.722-.235,1.766-.566,3.029-1.032s2.745-1.067,4.334-1.836a44.031,44.031,0,0,0,4.968-2.814l.182-.12a42.9,42.9,0,0,0,4.435-3.387,45,45,0,0,0,3.249-3.145c.878-.938,1.551-1.729,2.022-2.274s.744-.841.8-.809Z"/>
    <path id="a6e1c07a-c800-40f4-afd2-11778630c240" data-name="path4812" class="f05f5447-4f95-4c4a-a42e-15b72053e1a4" d="M48.669,71.039c-.026-.055.222-.223.7-.466a20.228,20.228,0,0,1,2.109-.893,30.466,30.466,0,0,1,3.276-.981,33.272,33.272,0,0,1,4.148-.717q.47-.051.93-.088h0a33.4,33.4,0,0,1,3.888-.082,29.945,29.945,0,0,1,3.127.281,19.188,19.188,0,0,1,2.055.4c.476.125.729.227.718.282s-.286.059-.776.032-1.193-.084-2.065-.133-1.914-.092-3.076-.09-2.442.048-3.788.165h0q-.449.039-.906.088c-1.449.157-2.82.382-4.057.634s-2.339.532-3.261.785-1.664.48-2.183.627-.816.211-.842.156Z"/>
    <path id="bbbe913a-79ac-4c14-9cf9-c48bcf78cf97" data-name="path4818" class="f05f5447-4f95-4c4a-a42e-15b72053e1a4" d="M49.716,74.539c-.032-.068.182-.237.609-.473a15.377,15.377,0,0,1,1.885-.85,25.364,25.364,0,0,1,2.951-.917,28.455,28.455,0,0,1,3.749-.66q.425-.046.842-.079h0a28.414,28.414,0,0,1,3.516-.059,24.761,24.761,0,0,1,2.823.286,14.8,14.8,0,0,1,1.848.4c.426.13.65.24.636.309s-.265.091-.708.084-1.077-.043-1.861-.074-1.718-.057-2.759-.047-2.187.056-3.392.163h0q-.4.035-.811.08c-1.3.14-2.525.337-3.635.555s-2.1.459-2.933.673-1.5.4-1.977.517-.75.155-.783.087Z"/>
    <path id="be151941-f6f6-45b5-b276-1bf2e7c893ba" data-name="path4824" class="f05f5447-4f95-4c4a-a42e-15b72053e1a4" d="M52.482,78.531c-.035-.067.129-.221.465-.433a10.973,10.973,0,0,1,1.5-.759,18.658,18.658,0,0,1,2.385-.814,21.308,21.308,0,0,1,3.054-.582c.238-.028.474-.051.707-.071h0a21.254,21.254,0,0,1,2.866-.043,18.441,18.441,0,0,1,2.3.264,10.189,10.189,0,0,1,1.493.374c.343.12.521.224.506.293s-.222.1-.582.1-.874-.021-1.507-.042-1.388-.037-2.227-.025-1.764.055-2.734.147h0c-.222.022-.447.045-.673.071-1.047.122-2.038.29-2.933.476s-1.7.388-2.366.567-1.217.335-1.6.427-.616.119-.651.052Z"/>
    <path id="b8a972fe-92d4-4f22-9b87-93fbfdac4b36" data-name="path4830" class="f05f5447-4f95-4c4a-a42e-15b72053e1a4" d="M88.84,95.03c.076-.02.222.2.41.62a14.915,14.915,0,0,1,.65,1.824,26.337,26.337,0,0,1,.653,2.79,30.056,30.056,0,0,1,.413,3.486c0,.061.007.122.011.184a30.147,30.147,0,0,1-.02,3.571,26.316,26.316,0,0,1-.347,2.9,15.129,15.129,0,0,1-.456,1.918c-.144.446-.268.684-.346.671s-.106-.274-.1-.735.046-1.122.087-1.935.083-1.78.095-2.852,0-2.249-.071-3.482l-.01-.178c-.069-1.213-.18-2.364-.307-3.408s-.271-1.983-.4-2.771-.233-1.428-.288-1.876-.055-.7.021-.724Z"/>
    <path id="b6123448-e5ba-4f8b-8502-ae155d749ffd" data-name="path4836" class="f05f5447-4f95-4c4a-a42e-15b72053e1a4" d="M101.053,88.929c.077.007.112.338.123.931s0,1.448-.013,2.506-.013,2.32.016,3.724.091,2.952.207,4.581h0q.029.406.062.82c.138,1.723.323,3.362.524,4.85s.418,2.824.608,3.947.354,2.033.448,2.668.116.993.038,1.012-.247-.306-.476-.914-.516-1.5-.811-2.615-.6-2.456-.861-3.957-.483-3.161-.624-4.911q-.033-.42-.06-.832h0c-.108-1.655-.132-3.227-.1-4.65s.124-2.7.237-3.762.249-1.918.372-2.5.233-.9.309-.895Z"/>
    <path id="b81c40ee-1afe-4c99-b365-5188c190c906" data-name="path4782" class="f05f5447-4f95-4c4a-a42e-15b72053e1a4" d="M78.638,36.843a1.158,1.158,0,0,1,.083.418c.034.277.074.689.113,1.227.077,1.076.153,2.658.144,4.675s-.1,4.469-.388,7.272a78.877,78.877,0,0,1-1.52,9.357c-.33,1.468-.714,2.979-1.139,4.529s-.894,3.14-1.385,4.767-1.005,3.291-1.518,4.992-1.022,3.439-1.5,5.215c-.557,2.078-1.068,4.213-1.5,6.393q-.585,2.922-.946,5.783T68.611,97.1c-.075,1.874-.065,3.718-.081,5.518s-.059,3.559-.207,5.261a28.559,28.559,0,0,1-1.013,5.635,18.947,18.947,0,0,1-2.14,4.794,16.923,16.923,0,0,1-3.036,3.544,17.694,17.694,0,0,1-3.367,2.348,18.23,18.23,0,0,1-6.271,2.01,14.765,14.765,0,0,1-1.758.127,1.89,1.89,0,0,1-.607-.038,2.477,2.477,0,0,1,.6-.091c.394-.045.976-.112,1.722-.247a20.013,20.013,0,0,0,2.687-.68,18.389,18.389,0,0,0,3.367-1.49,17.483,17.483,0,0,0,3.206-2.343,16.512,16.512,0,0,0,2.862-3.463,18.2,18.2,0,0,0,2-4.655,29.046,29.046,0,0,0,.927-5.509c.131-1.675.159-3.413.163-5.207s-.017-3.645.05-5.543q.1-2.8.455-5.693c.237-1.926.556-3.878.949-5.844.439-2.2.958-4.351,1.525-6.443.484-1.787,1-3.531,1.523-5.234s1.046-3.365,1.547-4.986.981-3.2,1.419-4.74.834-3.035,1.178-4.488a83.85,83.85,0,0,0,1.651-9.265c.337-2.778.493-5.213.568-7.219s.072-3.584.071-4.66c0-.538,0-.95,0-1.228s.017-.423.038-.424Z"/>
    <path id="b00c4457-b855-4644-bcc7-17c45ce5adf5" data-name="path4863" class="e2c9bd30-3a48-4a84-b052-056ba6d16a5c" d="M49.4,55.186c0,.814-.981,1.475-2.193,1.475s-2.2-.659-2.2-1.473v0c0-.814.981-1.474,2.193-1.475s2.2.659,2.2,1.473Z"/>
    <path id="a979cee1-af75-493c-89b5-4afee0207cbf" data-name="path4865" class="f05f5447-4f95-4c4a-a42e-15b72053e1a4" d="M54.908,83.255c-.035-.067.091-.2.359-.387a7.783,7.783,0,0,1,1.209-.646,14.208,14.208,0,0,1,1.934-.683,16.671,16.671,0,0,1,2.485-.482q.291-.033.576-.057h0a16.548,16.548,0,0,1,2.334-.025,13.908,13.908,0,0,1,1.866.237,7.436,7.436,0,0,1,1.208.334c.276.109.417.206.4.274s-.185.1-.478.117-.71,0-1.223,0-1.121-.014-1.8,0-1.42.054-2.2.129h0c-.178.018-.359.037-.541.058-.843.1-1.641.231-2.364.375s-1.37.3-1.915.436-.99.251-1.308.314-.51.073-.544.006Z"/>
    <path id="bba1f36a-3ca4-4029-97fc-654d69ec7a06" data-name="path4875" class="f05f5447-4f95-4c4a-a42e-15b72053e1a4" d="M55.526,87.1c-.035-.066.076-.2.314-.367a6.542,6.542,0,0,1,1.083-.6,12.233,12.233,0,0,1,1.742-.627,14.662,14.662,0,0,1,2.243-.439c.175-.021.348-.038.52-.051h0A14.5,14.5,0,0,1,63.535,85a12.209,12.209,0,0,1,1.682.225,6.27,6.27,0,0,1,1.087.317c.247.1.373.2.358.267s-.17.106-.434.124-.64.017-1.1.015-1.008,0-1.615.014-1.274.053-1.975.122h0c-.16.015-.322.033-.486.052-.756.087-1.472.2-2.121.332s-1.231.262-1.723.38-.893.215-1.181.266-.465.053-.5-.014Z"/>
    <path id="ef251277-205b-4c49-b134-bfe6bf06e1cb" data-name="path4881" class="f05f5447-4f95-4c4a-a42e-15b72053e1a4" d="M55.526,87.1c-.035-.066.076-.2.314-.367a6.542,6.542,0,0,1,1.083-.6,12.233,12.233,0,0,1,1.742-.627,14.662,14.662,0,0,1,2.243-.439c.175-.021.348-.038.52-.051h0A14.5,14.5,0,0,1,63.535,85a12.209,12.209,0,0,1,1.682.225,6.27,6.27,0,0,1,1.087.317c.247.1.373.2.358.267s-.17.106-.434.124-.64.017-1.1.015-1.008,0-1.615.014-1.274.053-1.975.122h0c-.16.015-.322.033-.486.052-.756.087-1.472.2-2.121.332s-1.231.262-1.723.38-.893.215-1.181.266-.465.053-.5-.014Z"/>
    <path id="b245c165-5869-4912-baf8-843194d0224e" data-name="path4883" class="f05f5447-4f95-4c4a-a42e-15b72053e1a4" d="M56.583,91.887c-.034-.067.049-.184.237-.334a4.758,4.758,0,0,1,.868-.516,9.374,9.374,0,0,1,1.413-.531,11.34,11.34,0,0,1,1.828-.366c.143-.016.284-.03.424-.041h0a11.232,11.232,0,0,1,1.72,0,9.049,9.049,0,0,1,1.369.2,4.43,4.43,0,0,1,.879.288c.2.1.3.184.282.253s-.143.112-.359.138-.52.036-.893.044-.813.014-1.3.034-1.024.052-1.587.108h0l-.391.042c-.607.071-1.183.162-1.706.259s-.994.2-1.394.284-.728.155-.966.185S56.618,91.954,56.583,91.887Z"/>
    <path id="b633ca03-8071-4c0b-9a18-a841ebf12fdf" data-name="path4889" class="f05f5447-4f95-4c4a-a42e-15b72053e1a4" d="M59.023,101.821c-.035-.067.017-.17.147-.3a2.816,2.816,0,0,1,.62-.422,5.949,5.949,0,0,1,1.032-.42,7.567,7.567,0,0,1,1.349-.281c.106-.013.211-.023.314-.031h0a7.539,7.539,0,0,1,1.272.011,5.958,5.958,0,0,1,1.007.182,2.685,2.685,0,0,1,.639.256c.142.086.211.168.195.237s-.112.118-.272.154a4.923,4.923,0,0,1-.653.076c-.54.038-1.271.067-2.078.151h0l-.28.03c-.436.051-.85.112-1.228.174s-.72.125-1.013.174a6.015,6.015,0,0,1-.718.09c-.181.005-.3-.02-.333-.086Z"/>
    <path id="f2336aff-eb03-47db-adb8-633b2e866dca" data-name="path4895" class="f05f5447-4f95-4c4a-a42e-15b72053e1a4" d="M59.754,104.765c-.035-.067.017-.17.147-.3a2.854,2.854,0,0,1,.62-.421,5.949,5.949,0,0,1,1.032-.42,7.654,7.654,0,0,1,1.349-.282c.106-.012.21-.022.314-.03h0a7.526,7.526,0,0,1,1.271.011,5.952,5.952,0,0,1,1.008.182,2.733,2.733,0,0,1,.639.255c.142.087.21.169.195.238s-.112.118-.272.153a4.755,4.755,0,0,1-.653.077c-.54.038-1.271.067-2.078.151h0l-.28.03c-.436.051-.85.112-1.228.174s-.72.125-1.013.174a6.015,6.015,0,0,1-.718.09c-.181,0-.3-.02-.333-.086Z"/>
    <path id="e585495f-ae70-48bb-8fda-5bbc3f9f0527" data-name="path4901" class="f05f5447-4f95-4c4a-a42e-15b72053e1a4" d="M59.755,107.763c.022-.072.134-.114.315-.139s.43-.032.729-.039.651-.013,1.035-.035.8-.057,1.238-.118c.109-.015.216-.032.321-.049h0c.791-.13,1.486-.321,2-.456a5.357,5.357,0,0,1,.636-.14c.162-.021.271-.009.312.05s.009.158-.091.286a2.391,2.391,0,0,1-.508.45,5.038,5.038,0,0,1-.9.486,6.432,6.432,0,0,1-1.232.374h0c-.121.024-.244.044-.37.062a6.684,6.684,0,0,1-1.427.046,5.548,5.548,0,0,1-1.141-.2,2.809,2.809,0,0,1-.714-.307c-.157-.1-.229-.2-.207-.267Z"/>
    <path id="ff1fa79a-1594-42ff-8996-a99a411b00a5" data-name="path4953" class="f05f5447-4f95-4c4a-a42e-15b72053e1a4" d="M88.256,119.774a2.581,2.581,0,0,1-.264,2.625,2.614,2.614,0,0,1-2.906.924,3.106,3.106,0,0,1-3.518,2.313c-.578.088-1.147-.785-1.543-.218a3.114,3.114,0,0,1-4.692-1.252c-.371-.056-1.077.289-1.588.092a2.742,2.742,0,0,1-2.4-3.22,3.859,3.859,0,0,0,.484,1.432,3.14,3.14,0,0,0,3.43,1.345c.48,0,.642.873,1.17,1.062a2.977,2.977,0,0,0,3.2.243c.42-.3.749-.485,1.212-.145a3.2,3.2,0,0,0,3.421-.886c.45-.246.351-1.153.92-1.048,1.319.034,2.582-.43,2.953-1.68A3.99,3.99,0,0,0,88.256,119.774Z"/>
    <path id="afde0c2d-11ff-4989-9651-7002fc24b4f6" data-name="path4973" class="f05f5447-4f95-4c4a-a42e-15b72053e1a4" d="M120.782,114.909a2,2,0,0,1-.2,2.019,2.166,2.166,0,0,1-2.275,1,2.366,2.366,0,0,1-2.674,1.851c-.439.07-.872-.628-1.173-.174a2.313,2.313,0,0,1-3.567-1c-.281-.045-.818.232-1.207.074-1.185-.22-2.256-1.095-1.929-2.3a2.409,2.409,0,0,0,.472.868,2.336,2.336,0,0,0,2.608,1.077c.365,0,.487.7.889.849a2.171,2.171,0,0,0,2.435.194c.319-.236.569-.388.921-.116a2.352,2.352,0,0,0,2.6-.708c.342-.2.267-.923.7-.839a2.334,2.334,0,0,0,2.31-1.6,2.946,2.946,0,0,0,.089-1.189Z"/>
    <path id="a72a532d-99b5-431e-a454-edca99a817b9" data-name="path4975" class="f05f5447-4f95-4c4a-a42e-15b72053e1a4" d="M102.98,113.815c.226.689-.211,1.063-.7,1.593a2.21,2.21,0,0,1-2.422.627,2.429,2.429,0,0,1-2.971,1.407c-.445,0-.746-.755-1.124-.354a2.274,2.274,0,0,1-3.336-1.544c-.269-.088-.848.1-1.2-.115a2.088,2.088,0,0,1-1.3-2.8,2.983,2.983,0,0,0,.124,1.163,2.277,2.277,0,0,0,2.377,1.468c.36.053.355.764.723.975a2.148,2.148,0,0,0,2.365.572c.358-.183.632-.294.929.029a2.38,2.38,0,0,0,2.692-.293c.373-.141.43-.868.841-.718a2.4,2.4,0,0,0,2.567-1.217c.21-.377.386-.377.44-.792Z"/>
    <path id="b54726f8-b095-4db2-a6ee-db6464403521" data-name="path4987" class="f05f5447-4f95-4c4a-a42e-15b72053e1a4" d="M62.778,120.756c.521.024.884-.756,1.3-.377,1.081.7,3.361,1.539,4.411.686a4.228,4.228,0,0,0,.99-1.272,2.744,2.744,0,0,1-1.725,2.064c-1.07.454-3.13-.473-3.925-1.293a3.3,3.3,0,0,1-1.494.709"/>
    <path id="b70ab907-52df-437a-8e9e-8390e1c399d8" data-name="path4979" class="f05f5447-4f95-4c4a-a42e-15b72053e1a4" d="M68.755,91.68c.06-.015.224.328.451.969s.518,1.583.806,2.766a41.44,41.44,0,0,1,.791,4.212,44.306,44.306,0,0,1,.395,5.258h0q.006.4.006.8c0,1.895-.12,3.7-.278,5.342s-.356,3.128-.544,4.387c-.2,1.358-.4,2.456-.558,3.214s-.283,1.173-.348,1.165-.068-.439-.022-1.208.14-1.877.259-3.24c.11-1.263.244-2.746.358-4.379s.2-3.416.207-5.283c0-.264,0-.526,0-.787h0c-.022-1.847-.138-3.6-.3-5.183s-.38-3-.584-4.185-.4-2.139-.519-2.8-.173-1.032-.113-1.047Z"/>
    <path id="b3e2caa6-71d6-4d0c-9532-a13bc70d466c" data-name="path5007" class="a3345923-661e-49e4-ab5d-12fe49ac98bd" d="M78.549,74.816c-2.556.01-3.819,3.573-5.55,6.444-2.229,3.695-6.842,6.289-9.372,5.968-1.091-1.431,5.764-4.211,7.58-7.9,1.8-3.646,3.829-5.22,2.869-7.338a15.378,15.378,0,0,1,2.851,1.147,8.52,8.52,0,0,1,1.622,1.676Z"/>
    <path id="e024f51e-1941-479f-bb26-500b7b10e924" data-name="path5011" class="a3345923-661e-49e4-ab5d-12fe49ac98bd" d="M46.936,72.7a17.4,17.4,0,0,1-5.115,6.5c-2.471,2.152-8.006,3.006-7.852,4.5.8,1.5,6.608-1.56,9.424-3.309,2.661-1.654,2.686-1.947,4.361-4.483Z"/>
  </g>
</svg>
