<svg xmlns="http://www.w3.org/2000/svg" width="114.602" height="114.602" viewBox="0 0 114.602 114.602">
  <defs>
    <style>
      .b66535f0-d7df-4920-bb9c-49e1a631a614 {
        fill: #231f20;
      }

      .b66535f0-d7df-4920-bb9c-49e1a631a614, .fdf71195-0383-4fc4-a37d-38e75c155e51 {
        stroke: #fff;
        stroke-miterlimit: 10;
      }

      .a1887a63-201f-4948-a742-8b0fa7b09a54, .b5729a7a-1865-42c5-a5bc-6d40610bf951, .bc34df1c-201e-4ad7-9b17-8a7213fc47f8 {
        fill: #fff;
      }

      .bc34df1c-201e-4ad7-9b17-8a7213fc47f8 {
        fill-rule: evenodd;
      }

      .b5729a7a-1865-42c5-a5bc-6d40610bf951 {
        stroke: #1b1b1b;
        stroke-linecap: round;
        stroke-linejoin: round;
        stroke-width: 0.2px;
      }

      .a1887a63-201f-4948-a742-8b0fa7b09a54 {
        stroke: #010101;
        stroke-width: 0.8px;
      }

      .fdf71195-0383-4fc4-a37d-38e75c155e51 {
        fill: none;
      }
    </style>
  </defs>
  <g id="ed98f37c-2a33-4eb1-aa0e-b9e4db388341" data-name="Layer 2">
    <g id="ab7a115a-ca4b-4630-b3bd-0b26ff949a49" data-name="Layer 1">
      <circle class="b66535f0-d7df-4920-bb9c-49e1a631a614" cx="57.301" cy="57.301" r="56.801"/>
      <g id="a9cdbb73-8081-43f9-a63c-0e5b80ecf169" data-name="Layer 2">
        <g id="b858f7e2-7d01-4679-863c-8aa722038714" data-name="Line Art">
          <path id="a1c74395-42ba-49e5-a9c6-f92187bee40a" data-name="path3714" class="bc34df1c-201e-4ad7-9b17-8a7213fc47f8" d="M31.086,54.388c.008.005-.024.07-.1.189a4.778,4.778,0,0,1-.386.507,6.489,6.489,0,0,1-.753.741,7.3,7.3,0,0,1-1.222.827,7.7,7.7,0,0,1-3.357.925,8.217,8.217,0,0,1-1.737-.125,9.166,9.166,0,0,1-1.83-.531,10.253,10.253,0,0,1-1.565-.8,10.925,10.925,0,0,1-1.487-1.108h0a13.825,13.825,0,0,1-2.194-2.52,21.686,21.686,0,0,1-1.759-3.14,27.567,27.567,0,0,1-1.717-4.7,20.8,20.8,0,0,1-.7-5.35,16.881,16.881,0,0,1,.775-5.018A14.884,14.884,0,0,1,15.58,29.5a14.575,14.575,0,0,1,2.61-2.529,15.226,15.226,0,0,1,3.3-1.891,15.724,15.724,0,0,1,3.623-1.019,15.882,15.882,0,0,1,3.866-.129c.89.081,1.759.233,2.621.335a9.832,9.832,0,0,0,2.5.041,7.794,7.794,0,0,0,1.94-.543c.635-.259,1.262-.58,1.89-.907a15.883,15.883,0,0,1,4.007-1.683,15.6,15.6,0,0,1,4.725-.041l.279.025a13.441,13.441,0,0,0,4.187-.078A11.915,11.915,0,0,0,54.4,19.649a27.077,27.077,0,0,1,3.3-1.774A11.539,11.539,0,0,1,60.82,17.1,12.629,12.629,0,0,1,64,17.163a14.208,14.208,0,0,1,5.829,2.28,15.251,15.251,0,0,1,5.127,5.832A15.545,15.545,0,0,1,76.23,28.94a16.1,16.1,0,0,1,.353,3.7,18.987,18.987,0,0,1-.814,5.016,26.023,26.023,0,0,1-1.807,4.451,41.757,41.757,0,0,1-2.7,4.489c-.939,1.377-1.887,2.647-2.785,3.83-.487.644-.973,1.27-1.488,1.836a10.555,10.555,0,0,1-1.647,1.493A6.909,6.909,0,0,1,63.2,54.8h0a5.507,5.507,0,0,1-1.243.2,4.883,4.883,0,0,1-1.171-.089,4.4,4.4,0,0,1-1.636-.7,4.017,4.017,0,0,1-1.035-1.047,3.628,3.628,0,0,1-.341-.635,3.72,3.72,0,0,1-.19-.594,3.555,3.555,0,0,1-.086-.957,2.885,2.885,0,0,1,.084-.578c.032-.127.059-.189.068-.187s0,.068-.011.2a4.154,4.154,0,0,0-.026.571,3.7,3.7,0,0,0,.343,1.48,3.587,3.587,0,0,0,.346.592,3.849,3.849,0,0,0,1.007.957,4.141,4.141,0,0,0,1.541.621,4.524,4.524,0,0,0,1.088.061A5.29,5.29,0,0,0,63.1,54.48h0a6.507,6.507,0,0,0,2-1.017,9.838,9.838,0,0,0,1.558-1.458c.491-.558.958-1.18,1.437-1.826.879-1.193,1.807-2.467,2.722-3.842a41.312,41.312,0,0,0,2.623-4.457,26.041,26.041,0,0,0,1.732-4.374,18.289,18.289,0,0,0,.756-4.873,15.7,15.7,0,0,0-.362-3.567,14.871,14.871,0,0,0-1.246-3.514,14.657,14.657,0,0,0-2.048-3.034A14.471,14.471,0,0,0,69.4,20a13.464,13.464,0,0,0-5.515-2.143,11.957,11.957,0,0,0-2.972-.053,10.614,10.614,0,0,0-2.9.725,26.683,26.683,0,0,0-3.2,1.729,12.609,12.609,0,0,1-3.5,1.524,14.23,14.23,0,0,1-4.448.1l-.281-.026a14.939,14.939,0,0,0-4.473.024,15.275,15.275,0,0,0-3.8,1.606,20.612,20.612,0,0,1-1.963.938,9.105,9.105,0,0,1-2.136.591,10.66,10.66,0,0,1-2.705-.044c-.892-.108-1.752-.261-2.6-.339A15.137,15.137,0,0,0,21.786,25.7a14.542,14.542,0,0,0-3.146,1.788,13.911,13.911,0,0,0-2.5,2.4,14.17,14.17,0,0,0-2.453,4.58,16.561,16.561,0,0,0-.783,4.846,20.215,20.215,0,0,0,.644,5.218,27.471,27.471,0,0,0,1.639,4.629,21.941,21.941,0,0,0,1.683,3.092,13.238,13.238,0,0,0,2.089,2.464h0a10.48,10.48,0,0,0,1.41,1.085,10.017,10.017,0,0,0,1.489.787,8.941,8.941,0,0,0,1.742.537,7.859,7.859,0,0,0,1.656.152,7.41,7.41,0,0,0,1.806-.26,7.756,7.756,0,0,0,1.449-.552A7.641,7.641,0,0,0,29.73,55.7a7.5,7.5,0,0,0,.779-.689c.2-.2.333-.36.426-.468s.142-.162.151-.157Z"/>
          <path id="b7513601-0dc3-4485-9a0a-86637fe013c6" data-name="path4848" class="b5729a7a-1865-42c5-a5bc-6d40610bf951" d="M54.59,38.337c0,.683-.822,1.236-1.839,1.237s-1.842-.553-1.843-1.236h0c0-.683.823-1.237,1.84-1.238s1.842.553,1.842,1.236Z"/>
          <path id="ad2d4ef1-581d-4635-842f-650b275898d4" data-name="path4770" class="bc34df1c-201e-4ad7-9b17-8a7213fc47f8" d="M74.209,24.755a.885.885,0,0,1,.328.018c.213.027.527.077.935.158s.909.192,1.493.346,1.25.35,1.984.6,1.539.563,2.393.944a29.507,29.507,0,0,1,2.7,1.371,29.134,29.134,0,0,1,2.864,1.88,27.715,27.715,0,0,1,2.869,2.456A26.953,26.953,0,0,1,93.3,36.809a27.611,27.611,0,0,1,4.2,10.419,26.894,26.894,0,0,1,.415,5.5c-.005.179-.012.357-.02.535a36.42,36.42,0,0,1-.905,6.228c-.478,2.123-1.064,4.152-1.629,6.1-.307,1.057-.608,2.09-.89,3.1s-.541,2-.771,2.96c-.259,1.085-.478,2.14-.649,3.162s-.293,2.009-.364,2.957h0a29.091,29.091,0,0,0,.09,5.308,30.435,30.435,0,0,0,.7,3.987c.266,1.086.528,1.92.707,2.487.089.283.159.5.2.646s.059.225.046.23-.057-.064-.126-.2-.165-.347-.281-.624a23.258,23.258,0,0,1-.861-2.465,27.525,27.525,0,0,1-.85-4.011,28.171,28.171,0,0,1-.21-5.389h0c.056-.966.163-1.972.321-3.01s.366-2.11.614-3.207c.221-.976.474-1.973.746-2.99s.567-2.055.866-3.113c.55-1.95,1.123-3.97,1.587-6.068a36.428,36.428,0,0,0,.877-6.116c.009-.174.015-.348.02-.522a26.593,26.593,0,0,0-.4-5.365,27.389,27.389,0,0,0-4.035-10.2,26.838,26.838,0,0,0-3.4-4.213,27.646,27.646,0,0,0-2.77-2.442A29.428,29.428,0,0,0,83.761,28.6c-.907-.546-1.786-1.011-2.616-1.407s-1.613-.724-2.329-1a34.25,34.25,0,0,0-3.39-1.093c-.4-.108-.7-.186-.91-.243s-.311-.091-.307-.106Z"/>
          <path id="f5d678f0-8bbf-4c27-8613-6d9c52e29cdb" data-name="path4776" class="bc34df1c-201e-4ad7-9b17-8a7213fc47f8" d="M16.78,30.074c-.011-.011.059-.09.215-.224a5.308,5.308,0,0,1,.749-.527,6.72,6.72,0,0,1,1.378-.614,7.086,7.086,0,0,1,2.052-.338,7.27,7.27,0,0,1,2.243.324,7.173,7.173,0,0,1,1.177.48,6.807,6.807,0,0,1,1.132.731,7.168,7.168,0,0,1,1.061,1.058,8.076,8.076,0,0,1,.865,1.3,11.492,11.492,0,0,1,1.037,2.82,27.562,27.562,0,0,1,.472,2.805c.123.966.232,1.958.415,2.959h0c.166.906.4,1.827.653,2.769s.541,1.907.8,2.9c.437,1.677.792,3.423,1.165,5.2s.764,3.6,1.308,5.414c.417,1.392.925,2.78,1.491,4.174s1.184,2.778,1.8,4.131,1.226,2.686,1.8,4c.757,1.734,1.45,3.452,2.018,5.148a34.236,34.236,0,0,1,1.294,5.01,24.869,24.869,0,0,1,.332,2.9,21.518,21.518,0,0,1-.027,2.765,17.856,17.856,0,0,1-1.055,4.905h0a16.1,16.1,0,0,1-1.143,2.411,16.88,16.88,0,0,1-1.346,1.985,17.437,17.437,0,0,1-2.719,2.757c-.417.337-.8.617-1.146.849s-.642.415-.888.557-.438.242-.57.3-.2.089-.21.078.051-.057.168-.139.3-.2.526-.362a20.325,20.325,0,0,0,1.92-1.492c.4-.347.817-.748,1.252-1.21a17.85,17.85,0,0,0,1.319-1.573,17.036,17.036,0,0,0,1.263-1.964,15.958,15.958,0,0,0,1.062-2.363h0a17.5,17.5,0,0,0,.947-4.781,21.3,21.3,0,0,0-.011-2.695,24.931,24.931,0,0,0-.352-2.83,33.967,33.967,0,0,0-1.312-4.91c-.572-1.668-1.267-3.365-2.024-5.086-.578-1.308-1.194-2.637-1.811-3.992s-1.235-2.737-1.811-4.156-1.086-2.818-1.508-4.236c-.55-1.85-.94-3.687-1.306-5.474s-.707-3.523-1.126-5.181c-.249-.984-.524-1.949-.774-2.9s-.475-1.893-.636-2.825h0c-.176-1.03-.274-2.032-.384-2.995A27.44,27.44,0,0,0,28.11,35.2a11.118,11.118,0,0,0-.944-2.712,7.889,7.889,0,0,0-.789-1.241,6.471,6.471,0,0,0-.968-1.006,6.341,6.341,0,0,0-1.037-.7,6.8,6.8,0,0,0-1.092-.476,6.981,6.981,0,0,0-2.106-.365,7.073,7.073,0,0,0-1.971.25,7.373,7.373,0,0,0-1.367.523,8.4,8.4,0,0,0-.783.449c-.173.109-.263.167-.273.156Z"/>
          <path id="bd8fb230-e722-4b27-b306-cb847c565396" data-name="path4788" class="bc34df1c-201e-4ad7-9b17-8a7213fc47f8" d="M69.712,55.338c.024-.005.07.1.133.307s.145.513.233.914a25.985,25.985,0,0,1,.5,3.462,30.773,30.773,0,0,1-.033,5.27,31.9,31.9,0,0,1-1.284,6.482h0c-.353,1.138-.777,2.287-1.225,3.45-.339.883-.68,1.746-1,2.594-.4,1.058-.757,2.1-1.047,3.106a21.088,21.088,0,0,0-.637,2.946,16.677,16.677,0,0,0-.156,2.305,17.513,17.513,0,0,0,.127,2.093,18.38,18.38,0,0,0,.738,3.368c.294.92.593,1.628.8,2.112.1.241.185.427.235.555s.07.2.053.206-.069-.046-.152-.159-.2-.285-.332-.516a14.132,14.132,0,0,1-.995-2.079,16.6,16.6,0,0,1-.915-3.419,16.818,16.818,0,0,1-.2-2.154,16.593,16.593,0,0,1,.106-2.388,20.821,20.821,0,0,1,.609-3.043c.283-1.038.641-2.1,1.036-3.167.316-.856.655-1.723.993-2.6.446-1.159.87-2.292,1.222-3.405h0a33.753,33.753,0,0,0,1.351-6.343,34.975,34.975,0,0,0,.2-5.186c-.051-1.467-.178-2.64-.27-3.448-.046-.4-.083-.717-.1-.93s-.019-.326,0-.33Z"/>
          <path id="aea597cc-5b62-40b1-b30e-039b1cd479ac" data-name="path4794" class="bc34df1c-201e-4ad7-9b17-8a7213fc47f8" d="M78.3,68.635c.034-.028.242.127.579.453a14.824,14.824,0,0,1,1.326,1.49,19.021,19.021,0,0,1,1.658,2.5,19.5,19.5,0,0,1,1.5,3.434h0a21.186,21.186,0,0,1,.724,2.959,26.4,26.4,0,0,1,.362,3.976,34.309,34.309,0,0,1-.116,3.436,32.885,32.885,0,0,1-.458,3.491c-.079.414-.154.736-.216.953s-.11.329-.142.325-.043-.125-.039-.349.022-.55.049-.968c.054-.834.141-2.029.189-3.482.032-1.016.047-2.16,0-3.387a30.09,30.09,0,0,0-.392-3.881,22.823,22.823,0,0,0-.68-2.876h0a21.768,21.768,0,0,0-1.36-3.364A23.724,23.724,0,0,0,79.8,70.828c-.458-.688-.857-1.219-1.128-1.588s-.413-.578-.379-.6Z"/>
          <path id="a74bf2f9-7375-4bd2-8f9e-deb327944ba8" data-name="path4800" class="bc34df1c-201e-4ad7-9b17-8a7213fc47f8" d="M51.523,67.875c.05-.018.249.335.542,1a29.626,29.626,0,0,1,1.07,2.866,38.412,38.412,0,0,1,1.116,4.381,40.173,40.173,0,0,1,.67,5.482c.05.959.065,1.9.048,2.8h0a39.127,39.127,0,0,1-.341,4.5c-.183,1.36-.419,2.56-.654,3.551s-.469,1.774-.651,2.307-.311.815-.356.8,0-.315.1-.863.257-1.341.424-2.333.344-2.187.48-3.533.23-2.845.241-4.442h0c.007-.893-.013-1.817-.062-2.761a47.59,47.59,0,0,0-.6-5.406c-.28-1.652-.62-3.128-.941-4.36s-.623-2.22-.826-2.907a3.49,3.49,0,0,1-.256-1.088Z"/>
          <path id="a8277863-d22c-4313-b203-c75ef1f8fcec" data-name="path4806" class="bc34df1c-201e-4ad7-9b17-8a7213fc47f8" d="M89.945,57.237c.045.027-.1.327-.422.837A20.753,20.753,0,0,1,88,60.143a28.262,28.262,0,0,1-2.653,2.794,30.765,30.765,0,0,1-3.763,2.952l-.156.1a31.8,31.8,0,0,1-4.293,2.364,31.074,31.074,0,0,1-3.771,1.427,24.094,24.094,0,0,1-2.648.657c-.318.058-.566.093-.737.108s-.263.01-.27-.014.075-.067.232-.127.393-.139.7-.238c.605-.2,1.481-.475,2.54-.866s2.3-.895,3.636-1.54a36.806,36.806,0,0,0,4.167-2.36l.153-.1a35.934,35.934,0,0,0,3.719-2.841,37.572,37.572,0,0,0,2.726-2.638c.737-.787,1.3-1.451,1.7-1.907s.624-.706.668-.679Z"/>
          <path id="eb80d9dd-7da5-417b-a033-b32c7d170497" data-name="path4812" class="bc34df1c-201e-4ad7-9b17-8a7213fc47f8" d="M33.947,53.628c-.022-.045.186-.186.59-.39a16.831,16.831,0,0,1,1.769-.749,25.334,25.334,0,0,1,2.748-.823,27.782,27.782,0,0,1,3.479-.6c.263-.028.523-.053.781-.073h0a27.793,27.793,0,0,1,3.261-.069,25.039,25.039,0,0,1,2.622.235,16.129,16.129,0,0,1,1.724.335c.4.105.612.19.6.237s-.24.049-.65.026-1-.07-1.733-.111-1.605-.077-2.579-.076-2.049.04-3.178.139h0q-.377.032-.76.074c-1.215.131-2.365.32-3.4.531s-1.962.446-2.736.659-1.4.4-1.83.526-.685.177-.707.131Z"/>
          <path id="ae054187-d652-4900-a3bc-d89ada3e6d2c" data-name="path4818" class="bc34df1c-201e-4ad7-9b17-8a7213fc47f8" d="M34.826,56.564c-.028-.056.152-.2.51-.4a12.818,12.818,0,0,1,1.582-.713,21.149,21.149,0,0,1,2.475-.77,24.077,24.077,0,0,1,3.145-.553c.237-.026.473-.048.706-.066h0a23.665,23.665,0,0,1,2.949-.05,20.785,20.785,0,0,1,2.368.24,12.158,12.158,0,0,1,1.55.34c.357.108.545.2.533.259s-.222.076-.593.07-.9-.035-1.561-.062-1.442-.048-2.314-.039-1.835.047-2.846.136h0q-.336.03-.68.067c-1.088.118-2.118.283-3.049.466s-1.763.385-2.46.565-1.262.337-1.659.433-.629.13-.656.073Z"/>
          <path id="a549d060-2177-4d05-ad86-7a66731bf0b4" data-name="path4824" class="bc34df1c-201e-4ad7-9b17-8a7213fc47f8" d="M37.146,59.913c-.029-.056.108-.186.39-.364a9.253,9.253,0,0,1,1.262-.636,15.525,15.525,0,0,1,2-.682,17.821,17.821,0,0,1,2.561-.489q.3-.034.593-.059h0a17.819,17.819,0,0,1,2.4-.037,15.4,15.4,0,0,1,1.925.222,8.624,8.624,0,0,1,1.253.313c.287.1.436.188.424.246s-.186.081-.488.082-.733-.017-1.265-.034-1.164-.032-1.868-.022-1.478.047-2.293.124h0c-.186.018-.374.037-.564.06-.878.1-1.709.243-2.46.4s-1.422.325-1.985.476-1.02.281-1.344.358-.517.1-.546.044Z"/>
          <path id="ea3a57ec-d8c8-47ee-845c-bdcfab98cc9b" data-name="path4830" class="bc34df1c-201e-4ad7-9b17-8a7213fc47f8" d="M67.643,73.752c.063-.017.186.167.344.52a12.681,12.681,0,0,1,.545,1.53,21.974,21.974,0,0,1,.547,2.341,25.045,25.045,0,0,1,.347,2.924l.009.153a25.4,25.4,0,0,1-.016,3,22.278,22.278,0,0,1-.291,2.43,12.916,12.916,0,0,1-.383,1.609c-.121.374-.225.574-.291.563s-.088-.23-.082-.617.039-.941.073-1.623.07-1.493.08-2.392,0-1.886-.059-2.92l-.009-.15c-.058-1.017-.151-1.983-.258-2.859s-.227-1.663-.332-2.324-.2-1.2-.242-1.574-.046-.591.018-.607Z"/>
          <path id="a1280e1f-64a3-4b84-9567-6302ec8102d0" data-name="path4836" class="bc34df1c-201e-4ad7-9b17-8a7213fc47f8" d="M77.887,68.635c.064.006.094.283.1.78s0,1.215-.011,2.1-.011,1.945.013,3.123.077,2.476.174,3.843h0q.024.341.052.687c.116,1.446.272,2.821.44,4.069s.351,2.369.51,3.311.3,1.7.375,2.237.1.834.033.849-.208-.257-.4-.766-.432-1.258-.68-2.194-.5-2.06-.723-3.319-.4-2.652-.523-4.119q-.027-.352-.05-.7h0c-.09-1.388-.111-2.707-.083-3.9s.1-2.263.2-3.156.208-1.608.312-2.1.195-.757.259-.75Z"/>
          <path id="ec3f7829-3d1b-4a1d-bda9-8937dc341cdf" data-name="path4782" class="bc34df1c-201e-4ad7-9b17-8a7213fc47f8" d="M59.085,24.945c.017,0,.041.118.07.351s.062.577.094,1.029c.065.9.129,2.229.121,3.921s-.087,3.749-.325,6.1a66.429,66.429,0,0,1-1.275,7.848c-.277,1.232-.6,2.5-.956,3.8s-.749,2.633-1.161,4-.844,2.76-1.273,4.187-.858,2.885-1.257,4.374c-.468,1.744-.9,3.534-1.262,5.363q-.49,2.451-.794,4.851t-.393,4.718c-.062,1.572-.054,3.118-.067,4.629s-.05,2.985-.174,4.413a23.9,23.9,0,0,1-.85,4.726,15.842,15.842,0,0,1-1.8,4.021,14.173,14.173,0,0,1-2.547,2.973,14.833,14.833,0,0,1-2.823,1.97A15.318,15.318,0,0,1,37.157,99.9a12.5,12.5,0,0,1-1.474.106,1.6,1.6,0,0,1-.51-.032,2.153,2.153,0,0,1,.5-.076c.33-.038.819-.094,1.445-.207a16.711,16.711,0,0,0,2.253-.571A15.467,15.467,0,0,0,42.2,97.874a14.713,14.713,0,0,0,2.688-1.966A13.821,13.821,0,0,0,47.288,93a15.238,15.238,0,0,0,1.675-3.9,24.315,24.315,0,0,0,.778-4.622c.11-1.4.133-2.862.136-4.367s-.014-3.057.043-4.649c.055-1.565.184-3.16.382-4.776s.465-3.252.8-4.9c.369-1.846.8-3.65,1.279-5.4.406-1.5.841-2.963,1.278-4.391s.877-2.822,1.3-4.182.822-2.685,1.189-3.976.7-2.546.989-3.764A70.276,70.276,0,0,0,58.515,36.3c.282-2.331.413-4.373.476-6.056s.061-3.006.06-3.908c0-.451,0-.8,0-1.031a.988.988,0,0,1,.031-.355Z"/>
          <path id="ac98b967-724c-4fc3-ba0e-5d136762984e" data-name="path4863" class="b5729a7a-1865-42c5-a5bc-6d40610bf951" d="M34.562,40.331c0,.683-.823,1.237-1.84,1.237s-1.842-.552-1.842-1.235v0c0-.683.823-1.236,1.84-1.237s1.841.553,1.842,1.235Z"/>
          <path id="b0b0f1d5-bb5a-4969-ad73-77348e275725" data-name="path4865" class="bc34df1c-201e-4ad7-9b17-8a7213fc47f8" d="M39.18,63.875c-.029-.056.077-.171.3-.324a6.551,6.551,0,0,1,1.015-.542,11.938,11.938,0,0,1,1.622-.573,13.945,13.945,0,0,1,2.085-.4c.162-.019.323-.035.482-.048h0a13.752,13.752,0,0,1,1.958-.021,11.853,11.853,0,0,1,1.565.2,6.156,6.156,0,0,1,1.014.281c.231.091.349.172.337.23s-.156.087-.4.1-.6,0-1.026,0-.94-.011-1.508,0-1.191.045-1.847.108h0c-.15.015-.3.031-.454.049-.707.082-1.377.193-1.983.314s-1.149.252-1.606.366-.83.21-1.1.263-.428.061-.457.005Z"/>
          <path id="b3024103-e5f7-4b74-91db-21dc2223c84d" data-name="path4875" class="bc34df1c-201e-4ad7-9b17-8a7213fc47f8" d="M39.7,67.1c-.029-.056.063-.165.263-.308a5.6,5.6,0,0,1,.909-.5,10.336,10.336,0,0,1,1.461-.525,12.242,12.242,0,0,1,1.881-.369c.147-.017.292-.031.436-.043h0a12.224,12.224,0,0,1,1.768-.015,10.241,10.241,0,0,1,1.411.189,5.242,5.242,0,0,1,.911.266c.208.088.313.166.3.224s-.143.089-.365.1-.537.014-.923.013-.845,0-1.354.011-1.069.045-1.657.1h0c-.134.013-.27.028-.408.044-.634.073-1.234.172-1.779.278s-1.033.221-1.445.319-.749.181-.991.224-.39.044-.419-.012Z"/>
          <path id="be37042d-cc9c-4637-9129-af7ece7f7e05" data-name="path4881" class="bc34df1c-201e-4ad7-9b17-8a7213fc47f8" d="M39.7,67.1c-.029-.056.063-.165.263-.308a5.6,5.6,0,0,1,.909-.5,10.336,10.336,0,0,1,1.461-.525,12.242,12.242,0,0,1,1.881-.369c.147-.017.292-.031.436-.043h0a12.224,12.224,0,0,1,1.768-.015,10.241,10.241,0,0,1,1.411.189,5.242,5.242,0,0,1,.911.266c.208.088.313.166.3.224s-.143.089-.365.1-.537.014-.923.013-.845,0-1.354.011-1.069.045-1.657.1h0c-.134.013-.27.028-.408.044-.634.073-1.234.172-1.779.278s-1.033.221-1.445.319-.749.181-.991.224-.39.044-.419-.012Z"/>
          <path id="a06c6089-2bb4-4cea-91eb-fb61db64a699" data-name="path4883" class="bc34df1c-201e-4ad7-9b17-8a7213fc47f8" d="M40.586,71.116c-.029-.056.04-.154.2-.28a3.959,3.959,0,0,1,.728-.433,7.781,7.781,0,0,1,1.185-.445,9.414,9.414,0,0,1,1.534-.307c.12-.014.238-.026.356-.035h0a9.393,9.393,0,0,1,1.442,0,7.671,7.671,0,0,1,1.148.172,3.772,3.772,0,0,1,.738.242c.166.081.249.155.237.213s-.12.093-.3.115-.437.03-.75.037-.681.012-1.091.028-.859.044-1.331.091h0l-.328.036c-.509.059-.992.135-1.431.217s-.834.166-1.169.238-.611.13-.811.155S40.615,71.172,40.586,71.116Z"/>
          <path id="f59ce9c6-be8c-487d-b04c-c95bb5002d24" data-name="path4889" class="bc34df1c-201e-4ad7-9b17-8a7213fc47f8" d="M42.632,79.448c-.029-.056.014-.142.124-.247a2.37,2.37,0,0,1,.519-.354,5.068,5.068,0,0,1,.866-.352,6.277,6.277,0,0,1,1.132-.236c.088-.011.176-.019.263-.026h0a6.274,6.274,0,0,1,1.067.01,4.879,4.879,0,0,1,.845.152,2.259,2.259,0,0,1,.535.214c.12.073.177.142.165.2s-.094.1-.229.129a4.029,4.029,0,0,1-.547.065c-.454.031-1.066.055-1.744.126h0l-.235.025c-.365.043-.712.094-1.03.146s-.6.1-.85.146a4.8,4.8,0,0,1-.6.075c-.151.005-.25-.016-.279-.072Z"/>
          <path id="fc423fc2-13ea-4a32-bb09-c13d9ff6f59f" data-name="path4895" class="bc34df1c-201e-4ad7-9b17-8a7213fc47f8" d="M43.245,81.917c-.029-.056.014-.142.124-.247a2.372,2.372,0,0,1,.519-.353,5.064,5.064,0,0,1,.866-.353,6.454,6.454,0,0,1,1.132-.236c.089-.01.176-.019.263-.025h0a6.278,6.278,0,0,1,1.067.009,4.854,4.854,0,0,1,.845.153,2.177,2.177,0,0,1,.535.214c.12.072.177.141.165.2s-.094.1-.228.129a4.265,4.265,0,0,1-.548.064c-.454.032-1.066.056-1.744.126h0l-.235.026c-.365.042-.712.094-1.029.146s-.6.1-.85.146a5.033,5.033,0,0,1-.6.075c-.151,0-.25-.017-.279-.073Z"/>
          <path id="bc8fe46d-6fca-4e74-bf4c-dc36258024a5" data-name="path4901" class="bc34df1c-201e-4ad7-9b17-8a7213fc47f8" d="M43.246,84.432c.018-.06.113-.095.264-.116a5.839,5.839,0,0,1,.612-.032c.252-.006.546-.012.868-.03s.674-.048,1.038-.1l.27-.041h0c.663-.109,1.246-.27,1.68-.383a4.733,4.733,0,0,1,.534-.117c.136-.017.228-.007.262.042s.008.132-.077.24a1.978,1.978,0,0,1-.426.377,4.14,4.14,0,0,1-.755.408,5.348,5.348,0,0,1-1.033.313h0c-.1.02-.2.038-.31.053a5.554,5.554,0,0,1-1.2.038,4.6,4.6,0,0,1-.957-.171,2.371,2.371,0,0,1-.6-.257c-.132-.086-.192-.165-.174-.225Z"/>
          <path id="aa24f6ce-e370-4560-918b-d25e5fd8cf58" data-name="path4953" class="bc34df1c-201e-4ad7-9b17-8a7213fc47f8" d="M67.153,94.508a2.166,2.166,0,0,1-.221,2.2,2.195,2.195,0,0,1-2.438.775,2.606,2.606,0,0,1-2.952,1.94c-.484.074-.961-.658-1.293-.182a2.613,2.613,0,0,1-3.936-1.05c-.311-.047-.9.242-1.332.077a2.3,2.3,0,0,1-2.014-2.7,3.233,3.233,0,0,0,.406,1.2A2.635,2.635,0,0,0,56.25,97.9c.4,0,.538.732.982.891a2.5,2.5,0,0,0,2.686.2c.352-.248.628-.407,1.016-.122a2.682,2.682,0,0,0,2.87-.743c.378-.207.3-.967.772-.879a2.284,2.284,0,0,0,2.477-1.409A3.359,3.359,0,0,0,67.153,94.508Z"/>
          <path id="a0091d25-adff-4a7f-9cdd-fbc7620b7565" data-name="path4973" class="bc34df1c-201e-4ad7-9b17-8a7213fc47f8" d="M94.436,90.427a1.684,1.684,0,0,1-.167,1.693,1.817,1.817,0,0,1-1.909.835,1.983,1.983,0,0,1-2.243,1.552c-.368.059-.731-.526-.983-.146a1.94,1.94,0,0,1-2.992-.84c-.236-.038-.687.194-1.013.062-.994-.185-1.892-.919-1.618-1.929a2.023,2.023,0,0,0,.4.729,1.959,1.959,0,0,0,2.187.9c.306,0,.409.585.746.712a1.82,1.82,0,0,0,2.042.163c.268-.2.478-.325.773-.1a1.974,1.974,0,0,0,2.182-.595c.286-.165.223-.773.586-.7a1.958,1.958,0,0,0,1.938-1.342,2.486,2.486,0,0,0,.075-1Z"/>
          <path id="b32314c4-54b4-4339-87ae-f6700e51b2da" data-name="path4975" class="bc34df1c-201e-4ad7-9b17-8a7213fc47f8" d="M79.5,89.509c.19.578-.177.892-.586,1.336a1.852,1.852,0,0,1-2.032.526,2.037,2.037,0,0,1-2.492,1.18c-.373,0-.625-.633-.943-.3a1.907,1.907,0,0,1-2.8-1.294c-.226-.074-.711.084-1.009-.1a1.752,1.752,0,0,1-1.093-2.35,2.509,2.509,0,0,0,.105.976,1.908,1.908,0,0,0,1.993,1.231c.3.045.3.641.607.818a1.8,1.8,0,0,0,1.984.48c.3-.154.529-.247.779.024a2,2,0,0,0,2.258-.246c.312-.118.36-.728.7-.6a2.013,2.013,0,0,0,2.153-1.02c.177-.317.324-.317.369-.665Z"/>
          <path id="ab894857-10d2-4e69-b0da-ffb186fc9812" data-name="path4987" class="bc34df1c-201e-4ad7-9b17-8a7213fc47f8" d="M45.782,95.331c.437.02.741-.634,1.088-.316.907.59,2.819,1.291,3.7.575a3.523,3.523,0,0,0,.83-1.067,2.3,2.3,0,0,1-1.447,1.731c-.9.382-2.625-.4-3.292-1.084a2.773,2.773,0,0,1-1.253.595"/>
          <path id="a29729f2-eead-4db4-a306-fd82acdd9b19" data-name="path4979" class="bc34df1c-201e-4ad7-9b17-8a7213fc47f8" d="M50.8,70.942c.05-.012.188.275.379.813s.434,1.328.676,2.32a34.672,34.672,0,0,1,.663,3.533,37.276,37.276,0,0,1,.332,4.411h0c0,.222.005.445,0,.67,0,1.59-.1,3.1-.233,4.482s-.3,2.623-.456,3.679c-.171,1.139-.335,2.061-.468,2.7s-.237.984-.292.977-.057-.368-.018-1.013.117-1.575.217-2.717c.092-1.06.205-2.3.3-3.673s.172-2.866.174-4.432c0-.221,0-.441,0-.66h0c-.019-1.55-.116-3.019-.255-4.348s-.319-2.517-.49-3.511-.332-1.793-.435-2.348-.145-.866-.095-.879Z"/>
          <path id="b9916a71-1847-427e-84c0-ede69d9886be" data-name="path5007" class="a1887a63-201f-4948-a742-8b0fa7b09a54" d="M59.011,56.8c-2.145.009-3.2,3-4.656,5.406-1.869,3.1-5.739,5.275-7.861,5.006-.915-1.2,4.834-3.533,6.358-6.624,1.507-3.058,3.211-4.379,2.407-6.156a12.863,12.863,0,0,1,2.391.963A7.163,7.163,0,0,1,59.011,56.8Z"/>
          <path id="bd1f9853-49c4-4270-b2a6-5047d7c8f4a2" data-name="path5011" class="a1887a63-201f-4948-a742-8b0fa7b09a54" d="M32.494,55.022A14.611,14.611,0,0,1,28.2,60.474C26.13,62.279,21.487,63,21.617,64.247c.673,1.258,5.542-1.308,7.9-2.776,2.233-1.387,2.254-1.633,3.659-3.76Z"/>
        </g>
      </g>
      <circle class="fdf71195-0383-4fc4-a37d-38e75c155e51" cx="57.301" cy="57.301" r="53.174"/>
    </g>
  </g>
</svg>
